# xmcd
#
# Track frame offsets:
#	150
#	84590
#	118489
#	161614
#	185149
#
# Disc length: 2864 seconds
#
# Revision: 0
# Processed by: cddbd v1.5.2PL0 Copyright (c) Steve Scherf et al.
# Submitted via: audiograbber 1.83.01
#
DISCID=430b2e05
DTITLE=Grateful Dead - 94-06-25 Sam Boyd Silver Bowl, Las Vegas NV
DYEAR=1900
DGENRE=
TTITLE0=Space
TTITLE1=The Last Time
TTITLE2=Stella Blue
TTITLE3=One More Saturday Night
TTITLE4=Liberty
EXTD=
EXTT0=
EXTT1=
EXTT2=
EXTT3=
EXTT4=
PLAYORDER=
